<svg xmlns="http://www.w3.org/2000/svg" xmlns:xlink="http://www.w3.org/1999/xlink" viewBox="0 0 32 32"><defs><style>.cls-1{fill:#fff;}.cls-2{fill:url(#linear-gradient);}.cls-3{mask:url(#mask);}.cls-4{fill:url(#linear-gradient-2);}.cls-5{fill:#f4f4f4;}</style><linearGradient id="linear-gradient" x1="1523.772" y1="226.639" x2="1536.772" y2="226.639" gradientTransform="translate(-1565.313 -167.477) scale(1.03 0.848)" gradientUnits="userSpaceOnUse"><stop offset="0.1" stop-opacity="0"/><stop offset="0.9"/></linearGradient><mask id="mask" x="0" y="0" width="32" height="32" maskUnits="userSpaceOnUse"><path class="cls-1" d="M14.486,30.864,2.5,23.876a1,1,0,0,1-.5-.864V9H4V22.438l11.494,6.7Z"/><path class="cls-1" d="M11.992,13.017l-2,0L10,4.337a1,1,0,0,1,.5-.866l4.02-2.313a1,1,0,0,1,1,0L27.5,8.136A1,1,0,0,1,28,9v4H26V9.575L15.017,3.18,12,4.917Z"/><rect class="cls-1" x="6" y="6" width="2" height="10"/><rect class="cls-2" x="4.442" y="20.519" width="13.392" height="8.482" transform="translate(13.872 -2.252) rotate(30)"/></mask><linearGradient id="linear-gradient-2" x1="-4352" y1="4384" x2="-4384" y2="4416" gradientTransform="matrix(1, 0, 0, -1, 4384, 4416)" gradientUnits="userSpaceOnUse"><stop offset="0.1" stop-color="#be95ff"/><stop offset="0.9" stop-color="#4589ff"/></linearGradient></defs><g id="Layer_2" data-name="Layer 2"><g id="Build_icon_here" data-name="Build icon here"><g class="cls-3"><rect class="cls-4" width="32" height="32" transform="translate(32 0) rotate(90)"/></g><path class="cls-5" d="M30,26H16a2.006,2.006,0,0,1-2-2V18a2.006,2.006,0,0,1,2-2H30a2.006,2.006,0,0,1,2,2V24A2.006,2.006,0,0,1,30,26ZM16,18l0,6,14,0,0-6Z"/><circle class="cls-5" cx="19" cy="21" r="1"/></g></g></svg>